# xmcd
#
# Track frame offsets:
#	150
#	19162
#	39532
#	64815
#	87462
#	103597
#	123827
#	142102
#	166372
#	186910
#	205120
#	221595
#	248672
#	267595
#
# Disc length: 3874 seconds
#
# Revision: 0
# Processed by: cddbd v1.5.2PL0 Copyright (c) Steve Scherf et al.
# Submitted via: audiograbber 1.83.01
#
DISCID=cf0f200e
DTITLE=R.E.M. - Up
DYEAR=1998
DGENRE=Pop
TTITLE0=Airportman
TTITLE1=Lotus
TTITLE2=Suspicion
TTITLE3=Hope
TTITLE4=At my most beautiful
TTITLE5=The apologist
TTITLE6=Sad professor
TTITLE7=You're in the air
TTITLE8=Walk unafraid
TTITLE9=Why not smile
TTITLE10=Daysleeper
TTITLE11=Diminished
TTITLE12=Parakeet
TTITLE13=Falls to climb
EXTD=9362-47112-2
EXTT0=
EXTT1=
EXTT2=
EXTT3=
EXTT4=
EXTT5=
EXTT6=
EXTT7=
EXTT8=
EXTT9=
EXTT10=
EXTT11=
EXTT12=
EXTT13=
PLAYORDER=
